<?xml version="1.0" encoding="UTF-8"?>
<svg enable-background="new 0 0 36 26" version="1.1" viewBox="0 0 36 26" xml:space="preserve" xmlns="http://www.w3.org/2000/svg">
<path d="m0 23c0 1.6 1.3 3 3 3h30c1.7 0 3-1.3 3-3v-20c0-1.6-1.3-3-3-3h-30c-1.7 0-3 1.3-3 3v20zm11-10l-6.8-6.8c-0.6-0.6-0.6-1.5 0-2 0.6-0.6 1.5-0.6 2.1 0l11 10.9c0.4 0.4 1.2 0.4 1.6 0l11-10.9c0.6-0.6 1.5-0.6 2.1 0s0.6 1.5 0 2l-7 6.8 6.9 6.8c0.6 0.6 0.6 1.5 0 2-0.6 0.6-1.5 0.6-2.1 0l-6.9-6.8s-2.1 2.2-2.5 2.5c-0.6 0.6-1.4 1-2.4 1-0.9 0-1.8-0.4-2.4-1l-2.5-2.5-6.9 6.8c-0.6 0.6-1.5 0.6-2.1 0s-0.6-1.5 0-2l6.9-6.8z"/>
</svg>
