<?xml version="1.0" encoding="UTF-8"?>
<svg enable-background="new 0 0 27 34" version="1.1" width="27" height="34" viewBox="0 0 27 34" xml:space="preserve" xmlns="http://www.w3.org/2000/svg">
<style type="text/css">
	.st0{fill:#192144;}
</style>
<path class="st0" d="m13.6 0h-0.2l-13.4 1.4v24.6l13.5 8 13.5-8v-24.6l-13.4-1.4zm5.7 16.8l-0.9 0.5-5-3v1.4l3.8 2.3-0.8 0.5-3-1.8v1.4l1.9 1.1-1.8 1.1-11.5-6.7 11.4-6.8 11.6 6.7-4.5 2.6-7.1-4.2v1.4l5.9 3.5zm-17.4-1.7l11.4 6.8v1l-8-4.7v1.4l8 4.8v1.1l-8-4.7v1.4l8 4.8 8.2-4.9v-1.3-0.1-3.7l3.4-2v10l-11.6 6.9-11.4-7v-9.8zm0-3v-9l11.6-1.2 11.6 1.2v9l-11.6-6.8v-0.1h-0.1-0.1v0.1l-11.4 6.8z"/>
</svg>
