<?xml version="1.0" encoding="UTF-8"?>
<svg enable-background="new 0 0 18 18" width="18" height="18" version="1.1" viewBox="0 0 18 18" xml:space="preserve" xmlns="http://www.w3.org/2000/svg">
<style type="text/css">
	.st0{fill:#231F20;}
</style>
			<path class="st0" d="m12.6 18h-0.8c-3.6-0.4-6.2-2.1-8.1-4.3-1.9-2.1-3.4-4.9-3.7-8.7v-1c0.1-0.7 0.4-1.1 0.8-1.5 0.4-0.5 1.2-1.1 1.8-1.2 0.5 0 1.3 0.3 1.6 0.8 0.3 0.4 0.4 1.2 0.6 1.8 0.1 0.6 0.4 1.4 0.4 2-0.2 0.9-1.3 1.3-1.7 1.9 1.1 2.8 3 4.8 5.4 6.2 0.6-0.3 1.2-1.4 2-1.4 0.3 0 0.7 0.2 1 0.3s0.6 0.2 1 0.4c0.5 0.2 1.4 0.5 1.7 0.9s0.5 1.2 0.4 1.7c-0.1 0.8-1.6 1.8-2.4 2.1z"/>
	<path class="st0" d="m9.1 1.1c4.3 0 7.8 3.6 7.8 8h1.1c0-5-4-9.1-8.9-9.1v1.1z"/>
	<path class="st0" d="m9.1 6.9v1.1c0.6 0 1 0.5 1 1.1h1.1c0-1.2-0.9-2.2-2.1-2.2z"/>
	<path class="st0" d="m9.1 4.6c2.4 0 4.4 2 4.4 4.5h1.2c0-3.1-2.5-5.7-5.5-5.7v1.2h-0.1z"/>
</svg>
