<?xml version="1.0" encoding="UTF-8"?>
<svg enable-background="new 0 0 17 21" version="1.1" width="13" height="16" viewBox="0 0 17 21" xml:space="preserve" xmlns="http://www.w3.org/2000/svg">
<path d="m16.2 3.1c-0.2-1.2-1-1.6-2.1-2.1-1.1-0.4-3.7-1-5.6-1s-4.5 0.6-5.6 1c-1.1 0.5-1.8 0.9-2.1 2.1l-0.8 6.4v8.8h1.4v1.4c0 1.7 2.5 1.7 2.5 0v-1.4h9.2v1.4c0 1.7 2.5 1.7 2.5 0v-1.4h1.4v-8.8l-0.8-6.4zm-11.2-1.5h7c0.7 0 0.7 1 0 1h-7c-0.7 0.1-0.7-1 0-1zm-2.3 14c-0.6 0-1.2-0.5-1.2-1.2s0.5-1.2 1.2-1.2c0.6 0 1.2 0.5 1.2 1.2-0.1 0.6-0.6 1.2-1.2 1.2zm5.7-5.4h-6.2c-0.6 0-0.7-0.4-0.7-0.9l0.6-4.7c0.1-0.6 0.3-0.9 1-0.9h10.7c0.7 0 0.9 0.4 1 0.9l0.6 4.7c0.1 0.4-0.1 0.9-0.7 0.9h-6.3zm5.9 5.4c-0.6 0-1.2-0.5-1.2-1.2s0.5-1.2 1.2-1.2c0.6 0 1.2 0.5 1.2 1.2 0 0.6-0.5 1.2-1.2 1.2z"/>
</svg>
