<?xml version="1.0" encoding="UTF-8"?>
<svg enable-background="new 0 0 17 21" version="1.1" viewBox="0 0 17 21" xml:space="preserve" xmlns="http://www.w3.org/2000/svg">
<path class="st0" d="m16.4 15.1c-0.9-1.2-2-2-3.6-2.4l-1.5 5.2c0 0.5-0.4 0.9-0.9 0.9s-0.9-0.4-0.9-0.9v-4.2c0-0.6-0.5-1.1-1.1-1.1s-1.1 0.5-1.1 1.1v4.2c0 0.5-0.4 0.9-0.9 0.9s-0.9-0.4-0.9-0.9l-1.5-5.2c-1.6 0.4-2.7 1.2-3.6 2.4-0.2 0.5-0.4 1.5-0.4 2v2.2c0 1 0.8 1.7 1.7 1.7h13.5c1 0 1.7-0.8 1.7-1.7v-2.2c0.1-0.5-0.1-1.5-0.5-2zm-12.5-10.5c0 2.6 1.6 6.3 4.6 6.3 2.9 0 4.6-3.8 4.6-6.3 0-2.6-2-4.6-4.6-4.6-2.5 0-4.6 2.1-4.6 4.6z"/>
</svg>
