<?xml version="1.0" encoding="UTF-8"?>
<svg enable-background="new 0 0 36 36" version="1.1"  viewBox="0 0 36 36" xml:space="preserve" xmlns="http://www.w3.org/2000/svg">
<style type="text/css">
	.st0{fill:#010101;}
</style>
<path class="st0" d="m18 0c-6.4 0-12.8 1.1-15.2 3.4-1.9 1.9-2.6 5.3-2.8 7.4v0.3c0 0.8 0.7 1.5 1.5 1.5 0.1 0 3.7-0.3 5.9-0.5h0.2c0.8 0 1.5-0.7 1.5-1.5v-3c-0.1-0.9 0.6-1.6 1.6-1.6h14.7c0.8 0 1.6 0.7 1.6 1.7v3c0 0.8 0.7 1.5 1.5 1.5h0.2c2.2 0.2 5.8 0.5 5.9 0.5 0.8 0 1.5-0.7 1.5-1.5v-0.3c-0.2-2.1-0.9-5.5-2.8-7.4-2.5-2.4-8.9-3.5-15.3-3.5zm0 19.5c-1.7 0-3 1.3-3 3s1.3 3 3 3 3-1.3 3-3-1.3-3-3-3zm-2.3-6.8v-1.9c0-1-0.8-1.9-1.9-1.9s-1.8 0.9-1.8 2v1.9l-10.1 10.8c-0.7 0.7-1.1 1.6-1.1 2.7v3c0 1.7 1.3 3 3 3h0.8v1.9c0 1 0.8 1.9 1.9 1.9s1.9-0.8 1.9-1.9v-1.9h19.5v1.9c0 1 0.8 1.9 1.9 1.9 1 0 1.9-0.8 1.9-1.9v-1.9h0.8c1.7 0 3-1.3 3-3v-3c0-1.1-0.4-2-1.1-2.7l-10.4-10.9v-1.9c0-1-0.8-1.9-1.9-1.9s-1.9 0.8-1.9 1.9v1.9h-4.5zm2.3 3.8c3.3 0 6 2.7 6 6s-2.7 6-6 6-6-2.7-6-6 2.7-6 6-6z"/>
</svg>
