<?xml version="1.0" encoding="UTF-8"?>
<svg enable-background="new 0 0 23 23" version="1.1" width="18" height="18" viewBox="0 0 23 23" xml:space="preserve" xmlns="http://www.w3.org/2000/svg">
<style type="text/css">
.st0{fill:#231F20;}
</style>
<path class="st0" d="m17 1.5c2.5 0 4.5 2 4.5 4.5v11c0 2.5-2 4.5-4.5 4.5h-11c-2.5 0-4.5-2-4.5-4.5v-11c0-2.5 2-4.5 4.5-4.5h11m0-1.5h-11c-3.3 0-6 2.7-6 6v11c0 3.3 2.7 6 6 6h11c3.3 0 6-2.7 6-6v-11c0-3.3-2.7-6-6-6z"/>
<path class="st0" d="m11.5 7.1c2.4 0 4.4 2 4.4 4.4s-2 4.4-4.4 4.4-4.4-2-4.4-4.4 2-4.4 4.4-4.4m0-1.5c-3.3 0-5.9 2.7-5.9 5.9s2.7 5.9 5.9 5.9 5.9-2.7 5.9-5.9-2.6-5.9-5.9-5.9z"/>
<circle class="st0" cx="17.6" cy="5.4" r="1.3"/>
</svg>
