<svg width="19" height="21" xmlns="http://www.w3.org/2000/svg">
  <path d="m18.9 18.9c-0.1-0.3-3.7-10.1-3.7-10.1-0.1-0.5 0.1-0.7 0.3-1.1 0 0 2.1-3.5 2.8-4.6 0.7-1.2 0.6-2.3-0.1-2.8s-1.7-0.1-2.5 1-3 4.5-3 4.5c-0.3 0.4-0.4 0.7-0.9 0.8-0.1-0.1-10.3 0.4-10.6 0.4s-0.7 0.1-1 0.6c-0.4 0.7-0.2 0.9 0.2 1 0 0 8 2.6 8.3 2.7 0.3 0 0.3 0.2 0.2 0.6-0.2 0.4-1.4 2.3-1.6 2.6-0.1 0.2-0.2 0.2-0.4 0.3l-2.8 1c-0.1 0-0.3 0.1-0.4 0.3l-0.4 0.6c-0.2 0.3-0.1 0.5 0.2 0.5 0.3 0.1 2.1 0.2 2.1 0.2s0.3 0.1 0.4 0.1c0.2 0.1 0.4 0.3 0.2 0.6-0.3 0.6-0.4 1.2-0.2 1.3s0.6-0.2 1-0.7c0.2-0.3 0.4-0.2 0.6 0 0.2-0.1 0.4 0.1 0.4 0.1s0.8 1.6 1 1.9 0.4 0.3 0.6 0l0.4-0.6c0.1-0.1 0.1-0.3 0.1-0.5l-0.3-3.1c0-0.2 0-0.2 0.1-0.5 0.1-0.2 1.4-2.2 1.6-2.5s0.4-0.3 0.6-0.1 5.7 6.7 5.7 6.7c0.3 0.3 0.5 0.4 0.9-0.2 0.4-0.4 0.3-0.8 0.2-1z"/>
</svg>
