<?xml version="1.0" encoding="UTF-8"?>
<svg enable-background="new 0 0 20 21" version="1.1" width="15" height="17" viewBox="0 0 20 21" xml:space="preserve" xmlns="http://www.w3.org/2000/svg">
	<ellipse cx="14.3" cy="2" rx="2.1" ry="2"/>
	<path d="m19.4 4.6c-0.5-0.2-1.2-0.1-1.4 0.4l-0.9 1.6-4.1-2.3c-0.2-0.1-0.3-0.1-0.6-0.1h-4.5c-0.4 0-0.7 0.1-0.9 0.5l-1.7 2.9c-0.3 0.5-0.1 1.1 0.4 1.3 0.2 0.1 0.4 0.1 0.5 0.1 0.4 0 0.8-0.2 1-0.5l1.4-2.4h1.6l-4.7 8.1h-4.4c-0.6 0-1.1 0.4-1.1 1s0.5 1 1.1 1h5c0.4 0 0.7-0.2 0.9-0.5l1.9-3.2 3 2.6-0.2 4.9c-0.1 0.5 0.4 1 1 1h0.1c0.6 0 1-0.4 1.1-0.9l0.3-5.4c0-0.3-0.1-0.6-0.3-0.8l-2.6-2.2 2.7-4.6 3.1 1.8c0 0.1 0.4 0.2 0.6 0.1 0.3-0.1 0.5-0.2 0.7-0.5l1.5-2.5c0.3-0.5 0.1-1.1-0.5-1.4z"/>
</svg>
