<?xml version="1.0" encoding="UTF-8"?>
<svg enable-background="new 0 0 18 14" version="1.1" width="18" height="14" viewBox="0 0 18 14" xml:space="preserve" xmlns="http://www.w3.org/2000/svg">
<style type="text/css">
.st0{fill:#231F20;}
</style>
<path class="st0" d="M14.9,1.8c1.2-1,0.9-1.8-0.7-1.8H3.7C2.2,0,1.9,0.8,3.1,1.8l3.7,3.1c1.2,1,3.2,1,4.4,0L14.9,1.8z"/>
<path class="st0" d="m11.9 7.1c-1.2 1-2.2 1.8-2.2 1.8-0.1 0.1-0.2 0.1-0.3 0.1h-0.1c-0.1 0.1-0.2 0.1-0.3 0.1s-0.2 0-0.3-0.1h-0.1c-0.1 0-0.2 0-0.3-0.1 0 0-1-0.8-2.2-1.8l-3.9-3.3c-1.2-1-2.2-0.5-2.2 1v6.3c0 1.6 1.3 2.9 2.8 2.9h12.3c1.6 0 2.8-1.3 2.8-2.8v-6.4c0-1.6-1-2-2.2-1l-3.8 3.3z"/>
</svg>
