<?xml version="1.0" encoding="UTF-8"?>
<svg enable-background="new 0 0 30 15.8" version="1.1" width="23" height="12" viewBox="0 0 30 15.8" xml:space="preserve" xmlns="http://www.w3.org/2000/svg">
	<path d="m23.9 15.8c-0.4 0-1.2-0.1-2.1-0.6-0.6-0.4-1.2-1-1.8-1.5-0.4-0.4-1.2-1.2-1.4-1.2-0.3 0.1-0.5 0.9-0.5 1.6 0 0.1 0 0.8-0.5 1.2-0.4 0.4-1.1 0.5-1.2 0.5h-1.9c-1 0-4.4-0.2-7.4-3-3.7-3.4-6.8-9.8-7-10.1-0.1-0.5-0.2-1.2 0.2-1.6s1.1-0.5 1.4-0.5h4.1 0.1c0.1 0 0.6 0.1 1 0.3s0.6 0.7 0.6 0.7 0.6 1.4 1.5 2.7c1.3 2 1.9 2.5 2.1 2.6 0.2-0.4 0.3-1.7 0.2-2.9 0-0.5-0.1-1.1-0.3-1.3-0.1-0.1-0.4-0.3-0.8-0.3l-0.7-0.6c-0.1-0.7 0.6-1.2 1.1-1.4 0.7-0.3 1.8-0.4 3.1-0.4h0.7c1.2 0 1.6 0.1 2.1 0.2 1.7 0.4 1.6 1.7 1.6 3.3v1.6 0.5c0 0.4 0 1 0.1 1.3 0.2-0.1 0.9-0.7 2.1-2.5 0.8-1.2 1.4-2.5 1.5-2.8 0.2-0.4 0.6-0.9 1.6-0.9h4.3 0.4c1 0 1.6 0.3 1.8 0.9 0.3 0.6 0.2 1.7-2.4 4.6-0.4 0.4-0.7 0.8-1 1.1-0.6 0.7-1.2 1.4-1.2 1.6 0.1 0.1 0.7 0.6 1.3 1.1 1.5 1.2 2.5 2.3 3 3.1s0.4 1.3 0.3 1.7c-0.4 0.9-1.6 1-1.9 1h-3.8-0.3zm-5.3-4.9c0.9 0 1.7 0.8 2.5 1.6 0.5 0.5 1 1 1.5 1.3 0.7 0.4 1.3 0.4 1.4 0.4h0.1 3.8c0.2 0 0.4-0.1 0.5-0.1 0 0 0-0.1-0.1-0.2-0.4-0.7-1.4-1.7-2.7-2.7-1.2-1-1.8-1.5-1.9-2.2-0.1-0.8 0.5-1.4 1.6-2.7 0.3-0.3 0.6-0.7 1-1.1 1.6-1.8 2-2.6 2.1-3h-0.7-4.4-0.2c-0.2 0.4-0.8 1.8-1.6 3-1.9 2.8-2.8 3.2-3.4 3.2-0.2 0-0.4 0-0.6-0.1-1-0.6-1-1.8-0.9-2.8v-0.4-1.7c0.1-1.7 0-1.7-0.4-1.8s-0.7-0.1-1.9-0.2h-0.7c-0.6 0-1.3 0-1.9 0.1l0.3 0.3c0.6 0.7 0.6 2 0.6 2.2 0.1 1.6 0.1 3.8-1 4.3-0.2 0.1-0.4 0.1-0.6 0.1-0.9 0-1.9-0.9-3.4-3.3-0.8-1.2-1.5-2.7-1.5-2.8l-0.1-0.1c-0.1 0-0.2-0.1-0.3-0.1h-4-0.1c0.6 1.2 3.4 6.6 6.5 9.5 2.7 2.5 5.8 2.6 6.4 2.6h1.9s0.2-0.1 0.3-0.1v-0.1c0-0.3 0-2.6 1.6-3 0.1-0.1 0.2-0.1 0.3-0.1z"/>
</svg>
